<svg width="88" height="44" viewBox="0 0 88 44" fill="none" xmlns="http://www.w3.org/2000/svg">
<path d="M36.6316 21.8911C36.6316 23.379 36.9186 24.4314 37.4927 25.0847C38.0667 25.7379 38.8381 26.0464 39.8248 26.0464C40.8115 26.0464 41.6187 25.7198 42.1748 25.1028C42.731 24.4677 43 23.3427 43 21.6915C43 20.3125 42.713 19.3145 42.121 18.6794C41.547 18.0443 40.7576 17.7177 39.771 17.7177C38.7843 17.7177 38.0488 18.0443 37.4748 18.6794C36.9007 19.3327 36.6137 20.4032 36.6137 21.8911M31.9136 21.873C31.9136 19.4778 32.6132 17.627 33.9945 16.2843C35.3759 14.9597 37.3133 14.2883 39.7889 14.2883C42.2645 14.2883 44.2737 14.9415 45.6551 16.248C47.0184 17.5544 47.7181 19.3871 47.7181 21.746C47.7181 23.4516 47.4131 24.8669 46.8211 25.9556C46.2291 27.0443 45.3501 27.8972 44.2199 28.5141C43.0897 29.131 41.6725 29.4214 39.9862 29.4214C38.3 29.4214 36.8469 29.1673 35.7167 28.6411C34.5865 28.1149 33.6716 27.2802 32.972 26.1371C32.2724 24.9939 31.9136 23.5786 31.9136 21.8548" fill="#005D73"/>
<path d="M66.949 24.1048H71.1289C71.3442 24.0867 71.5236 24.2318 71.5774 24.4133C71.7029 24.9395 71.9003 25.3568 72.1694 25.6653C72.7076 26.2641 73.4969 26.5544 74.5015 26.5544C75.2549 26.5544 75.829 26.4093 76.2416 26.1008C76.6542 25.7923 76.8515 25.4476 76.8515 25.0484C76.8515 24.6492 76.6542 24.3226 76.2775 24.0323C75.8828 23.7238 74.9858 23.4516 73.5686 23.1794C71.2545 22.7258 69.6041 22.1452 68.6174 21.4012C67.6128 20.6573 67.1284 19.7137 67.1284 18.5706C67.1284 17.8266 67.3796 17.1008 67.8998 16.4476C68.4021 15.7762 69.1735 15.25 70.1961 14.8689C71.2186 14.4879 72.6179 14.2883 74.3938 14.2883C76.5824 14.2883 78.2508 14.6331 79.3989 15.3407C80.4214 15.9577 81.0673 17.1008 81.3543 18.371C81.4081 18.625 81.2108 18.8609 80.9596 18.879H76.8336C76.6363 18.8972 76.4569 18.7883 76.403 18.5887C76.2595 18.0988 76.0084 17.7177 75.6496 17.4637C75.219 17.1552 74.645 17.0101 73.8915 17.0101C73.2816 17.0101 72.8152 17.1189 72.5102 17.3367C72.2052 17.5544 72.0438 17.8266 72.0438 18.1532C72.0438 18.3891 72.1694 18.5887 72.4205 18.7883C72.6717 18.9879 73.2637 19.1693 74.1965 19.3327C76.5107 19.7681 78.1611 20.1855 79.1657 20.621C80.1703 21.0564 80.8879 21.6008 81.3543 22.254C81.8028 22.9073 82.036 23.6149 82.036 24.4133C82.036 25.3568 81.731 26.2097 81.1211 27.0081C80.5111 27.8064 79.668 28.4052 78.5737 28.8044C77.4794 29.2218 76.116 29.4214 74.4656 29.4214C71.5594 29.4214 69.5502 28.9496 68.4201 27.9879C67.4155 27.1351 66.8055 25.8468 66.5903 24.5766C66.5544 24.3226 66.7338 24.1048 67.0029 24.0867" fill="#005D73"/>
<path d="M24.6481 29.4395H20.1274C19.8941 29.4395 19.6968 29.2399 19.6968 29.004V14.7419C19.6968 14.5061 19.8941 14.3065 20.1274 14.3065H24.6481C24.8813 14.3065 25.0786 14.5061 25.0786 14.7419V19.8589L31.7341 13.5807L22.6389 4.34477C22.1724 3.87299 21.419 3.87299 20.9526 4.34477L4.34078 21.1472C3.87436 21.619 3.87436 22.3811 4.34078 22.8528L20.9526 39.6552C21.419 40.127 22.1724 40.127 22.6389 39.6552L31.9135 30.2742L25.0786 24.2137V29.004C25.0786 29.2399 24.8813 29.4395 24.6481 29.4395Z" fill="#005D73"/>
<path d="M65.7291 28.6048L60.0244 14.7964C59.9706 14.6331 59.8091 14.5423 59.6477 14.5423H54.7682C54.6067 14.5423 54.4632 14.6512 54.3915 14.7964L48.6868 28.6048C48.5791 28.877 48.7765 29.1855 49.0635 29.1855H53.3689C53.5483 29.1855 53.6918 29.0766 53.7457 28.8952C53.7457 28.8952 56.024 23.0161 56.6698 21.3468C56.7595 21.1109 56.9747 20.9657 57.2079 20.9476C57.4412 20.9476 57.6564 21.1109 57.7461 21.3468C58.3919 23.0161 60.6702 28.8952 60.6702 28.8952C60.724 29.0585 60.8855 29.1855 61.0649 29.1855H65.3703C65.6573 29.1855 65.8547 28.877 65.747 28.6048" fill="#005D73"/>
</svg>
